<?xml version="1.0" encoding="UTF-8"?><svg xmlns="http://www.w3.org/2000/svg" width="16in" height="9in" xmlns:xlink="http://www.w3.org/1999/xlink" viewBox="0 0 1152 648"><defs><linearGradient id="b" x1="703.368" y1="337.05" x2="841.071" y2="337.05" gradientUnits="userSpaceOnUse"><stop offset="0" stop-color="#fb410a"/><stop offset="1" stop-color="#fb2914"/></linearGradient><linearGradient id="c" x1="265.748" y1="223.922" x2="473.028" y2="223.922" xlink:href="#b"/></defs><g isolation="isolate"><g id="a"><path d="m721.015,344.817c-16.663-15.031-21.527-46.613-14.585-69.494,12.037,14.426,28.716,18.996,45.992,21.575,26.671,3.981,52.863,2.492,77.639-9.538,2.834-1.377,5.454-3.209,8.551-5.063,2.325,6.656,2.929,13.375,2.118,20.214-1.975,16.655-10.374,29.521-23.733,39.273-5.342,3.901-10.994,7.388-16.512,11.066-16.95,11.305-21.536,24.561-15.166,43.843.151.469.287.939.629,2.086-8.654-3.821-14.975-9.386-19.792-16.703-5.087-7.722-7.508-16.265-7.635-25.508-.064-4.498-.064-9.036-.677-13.471-1.497-10.811-6.64-15.652-16.328-15.931-9.944-.286-17.81,5.78-19.895,15.334-.159.733-.39,1.457-.621,2.309l.016.008Z" fill="url(#b)"/><path d="m637.213,282.328s45.563-22.141,91.253-22.141l34.449-106.347c1.289-5.143,5.055-8.638,9.307-8.638s8.017,3.495,9.307,8.638l34.448,106.347c54.113,0,91.253,22.141,91.253,22.141,0,0-77.392-210.306-77.543-210.728-2.221-6.218-5.971-10.222-11.026-10.222h-92.869c-5.055,0-8.654,4.005-11.027,10.222-.167.414-77.551,210.728-77.551,210.728Z" fill="#17191e"/><ellipse cx="388.233" cy="390.149" rx="110.766" ry="14.751" fill="rgba(23,25,30,.78)"/><path d="m492.329,192.95c9.528-10.593,14.467-23.821,13.435-36.746-1.221-15.299-10.757-30.04-26.852-41.507h0c-2.009-1.431-4.078-2.776-6.189-4.048-1.891-7.991-5.995-15.135-9.557-20.207-5.593-7.961-12.691-14.956-19.474-19.191-12.352-7.712-26.04-11.613-37.901-14.663-6.626-1.704-12.185-1.326-17.091-.992-3.334.227-6.212.422-9.277-.021-13.517-1.957-27.496,1.177-40.428,9.064-11.444,6.979-21.481,17.455-28.264,29.498-9.219,16.368-13.213,34.695-15.276,52.331-2.882.365-6.186.392-9.593.417-10.006.072-22.458.162-31.305,9.907-7.655,8.432-8.045,19.625-8.303,27.031-.966,27.648-1.964,56.237-1.226,84.544.43,16.467,2.537,33.284,14.936,44.746,9.589,8.865,22.068,11.157,33.329,11.157,1.176,0,2.337-.028,3.481-.073.753,7.388,1.591,14.763,2.516,22.123,1.183,9.42,2.663,18.565,7.713,26.894,7.383,12.176,21.481,19.636,35.994,19.636,2.512,0,5.036-.224,7.54-.684,17.152-3.159,31.273-16.707,35.139-33.713,1.848-8.13,1.24-16.189.702-23.301-.23-3.051-.454-6.018-.485-8.848,3.636-.023,7.926-.068,12.574-.148-2.987,16.634,2.453,34.332,14.973,45.143,7.602,6.564,17.695,10.164,28.204,10.164,1.415,0,2.838-.066,4.263-.197,11.429-1.06,21.369-6.211,27.989-14.505,7.297-9.142,9.684-20.182,11.503-30.706,8.159-47.196,10.542-95.348,7.082-143.118l-.153.011Z"/><path d="m472.969,227.423c-.089-6.514-.295-13.027-.614-19.536-7.512,3.794-16.282,6.781-26.73,9.135-9.867,2.223-18.908,3.334-27.246,3.334-7.766,0-14.917-.961-21.562-2.884-20.882-6.049-38.256-22.565-45.356-43.11-5.515-15.963-4.713-34.13,2.204-49.83,7.517-17.074,26.143-22.045,37.276-25.018,17.224-4.596,35.255-4.755,52.151-.821-3.32-4.019-7.067-7.498-10.509-9.651-9.82-6.129-21.675-9.477-32.019-12.141-3.348-.858-6.481-.647-10.443-.375-3.953.267-8.436.572-13.707-.192-20.057-2.903-38.636,12.53-47.405,28.094-.455.811-.896,1.627-1.322,2.453-9.641,18.64-11.756,40.728-13.074,61.821-3.63,58.233-1.782,117.113,5.491,175.004.924,7.353,1.927,13.829,4.839,18.631,4.108,6.776,13.477,10.729,21.796,9.196,8.736-1.608,16.511-9.065,18.481-17.731,1.149-5.051.708-10.889.239-17.069-.535-7.072-1.14-15.091.675-23.18,1.041-4.647,5.083-8.005,9.843-8.183l.342-.014c.141-.005.277-.009.417-.009,8.45.023,50.491-.502,70.885-2.162,0,0-10.396,19.794-27.363,22.336-3.587,10.5-.863,23.203,6.889,29.9,4.267,3.686,10.561,5.538,16.821,4.957,5.613-.521,10.546-2.964,13.534-6.701,4.202-5.262,5.815-13.027,7.226-21.191,5.993-34.678,8.746-69.886,8.239-105.062Zm-180.444-37.121c.291-7.55.666-15.091,1.135-22.622-2.603.145-5.172.164-7.648.183-8.249.056-13.435.291-15.921,3.029-2.49,2.743-2.72,9.313-2.875,13.66-.08,2.312-.159,4.628-.244,6.95-.863,25.159-1.637,50.988-.975,76.316.309,11.874,1.519,23.71,8.206,29.89,4.971,4.596,12.516,5.773,20.676,5.543-2.997-37.548-3.784-75.34-2.354-112.949Z" fill="url(#c)"/><path d="m484.718,162.581c-.989,7.318-5.442,14.846-12.329,20.487-7.384,6.048-17.352,10.333-31.371,13.492-15.733,3.542-27.925,3.782-38.366.761-14.439-4.184-26.456-15.602-31.359-29.807-3.812-11.022-3.237-23.609,1.57-34.53.491-1.121,1.109-2.26,2.146-3.44,2.649-3.003,8.068-6.215,21.344-9.758,7.366-1.966,14.912-2.931,22.398-2.931,17.286,0,34.254,5.143,47.986,14.924,14.792,10.537,17.699,20.87,18.119,26.097.12,1.546.072,3.123-.138,4.705Z" fill="#a2d2e2"/><path d="m294.879,303.251c-8.16.23-15.705-.947-20.676-5.543-6.687-6.181-7.897-18.017-8.206-29.89-.661-25.328.113-51.157.975-76.316,7.578-3.147,16.76-2.664,25.553-1.201-1.43,37.609-.642,75.401,2.354,112.949Zm178.09-75.828c-5.862,21.679-21.191,40.878-41.816,49.806-27.025,11.705-61.516,4.174-80.212-18.584-11.972-14.575-17.088-33.539-20.357-52.118-5.773-32.845-6.739-66.524-2.898-99.645-9.641,18.64-11.756,40.728-13.074,61.821-3.63,58.233-1.782,117.113,5.491,175.004.924,7.353,1.927,13.829,4.839,18.631,4.108,6.776,13.477,10.729,21.796,9.196,8.736-1.608,16.511-9.065,18.481-17.731,1.149-5.051.708-10.889.239-17.069-.535-7.072-1.14-15.091.675-23.18,1.041-4.647,5.083-8.005,9.843-8.183l.342-.014c.141-.005.277-.009.417-.009,8.45.023,50.491-.502,70.885-2.162,0,0-10.396,19.794-27.363,22.336-3.587,10.5-.863,23.203,6.889,29.9,4.267,3.686,10.561,5.538,16.821,4.957,5.613-.521,10.546-2.964,13.534-6.701,4.202-5.262,5.815-13.027,7.226-21.191,5.993-34.678,8.746-69.886,8.239-105.062Z" fill="#9f2a08" mix-blend-mode="multiply" opacity=".5"/><path d="m484.718,162.581c-.989,7.318-5.442,14.846-12.329,20.487-7.384,6.048-17.352,10.333-31.371,13.492-15.733,3.542-27.925,3.782-38.366.761-14.439-4.184-26.456-15.602-31.359-29.807-3.812-11.022-3.237-23.609,1.57-34.53.491-1.121,1.109-2.26,2.146-3.44,2.769,4.16,4.855,15.044,6.791,18.263,4.052,6.719,9.824,12.455,16.525,16.537,14.139,8.613,31.575,10.465,47.998,8.379,13.162-1.672,25.869-5.682,38.396-10.141Z" fill="#5b7881" mix-blend-mode="multiply" opacity=".45"/><path d="m418.326,144.487c-2.663-.971-5.025-3.331-5.112-6.165-.127-4.125,4.216-6.853,8.126-8.171,11.009-3.712,23.355-3.306,34.097,1.122,3.063,1.263,6.373,3.369,6.675,6.668.337,3.684-3.493,6.582-7.172,6.967-3.679.385-7.299-.909-10.95-1.506-8.458-1.383-16.964,4.258-25.663,1.085Z" fill="#fff"/><path d="m230.075,462.288c1.36-.272,2.519-.409,3.474-.409,7.627,0,15.05,2.114,22.272,6.334,4.495,2.589,7.899,6.813,10.217,12.669.818,2.18,2.11,3.473,3.882,3.882,3.403.817,6.197,3.269,8.378,7.356,2.043,3.678,3.847,9.163,5.414,16.449,1.565,7.29,2.35,13.793,2.35,19.514,0,4.496-.408,7.835-1.226,10.012-.817,2.181-2.385,4.02-4.699,5.517-1.501,1.091-2.318,2.043-2.452,2.861-.138.682-.205,1.634-.205,2.86,0,.818.032,1.909.102,3.27.067,1.363.169,3.304.306,5.823.134,2.523.271,4.873.409,7.05.271,6.813.408,10.966.408,12.464,0,1.909-.07,2.931-.205,3.065-.546.545-5.383.817-14.507.817s-14.032-.409-14.712-1.226c-.408-.409-.887-4.154-1.43-11.238-.274-6.673-.648-10.795-1.124-12.363-.479-1.564-1.533-2.688-3.167-3.371-.546-.272-1.568-.409-3.065-.409-3.678,0-6.13.818-7.356,2.452-.546.818-.955,5.108-1.226,12.873-.274,7.902-.613,12.056-1.021,12.465-.546.545-4.429.817-11.647.817h-5.108c-4.087,0-6.471-.338-7.152-1.021-1.5-1.498-2.247-10.012-2.247-25.542,0-19.07.952-34.737,2.86-46.996,2.452-14.984,6.877-27.448,13.282-37.393,2.043-3.133,3.642-5.243,4.802-6.334,1.155-1.089,2.621-1.84,4.393-2.247Zm12.26,7.151c-4.087-1.089-6.813-1.635-8.173-1.635-1.772,0-3.544.751-5.313,2.247-8.039,7.085-13.623,22.682-16.755,46.793-1.226,11.308-1.839,24.111-1.839,38.415,0,4.769.067,8.106.205,10.012l.613,10.217h8.991c2.86,0,4.562-.476,5.108-1.43.543-.952.818-3.882.818-8.786v-1.635c.134-7.356.986-11.985,2.554-13.894,1.564-1.906,5.619-2.994,12.157-3.269,1.227-.135,2.79-.205,4.7-.205,2.452,0,3.95.274,4.495.817,2.452,1.909,3.678,7.427,3.678,16.551,0,3.407.205,6.539.613,9.4l.409,2.452h18.185l-.408-9.4c0-.952-.137-4.22-.408-9.808-.275-5.583-.479-9.738-.614-12.464-.137-3.813-.274-6.776-.408-8.888-.137-2.11-.274-3.577-.408-4.394-.137-.817-.409-2.212-.818-4.189-.408-1.973-.75-4.323-1.021-7.049-2.181-20.159-5.383-33.306-9.604-39.436-3.407-4.904-8.991-8.378-16.755-10.421Zm-14.099,13.69c3.132-.68,6.468-1.021,10.012-1.021,4.221,0,7.899.479,11.034,1.43,1.906.683,3.097,1.328,3.576,1.941.476.614,1.191,2.284,2.146,5.006,1.36,3.953,2.11,8.244,2.248,12.873l.408,7.56-3.065,1.43c-3.816,1.772-9.808,2.656-17.981,2.656-1.772,0-2.998-.066-3.678-.205-2.861-.271-5.655-1.021-8.378-2.247-2.727-1.226-4.566-2.519-5.517-3.882-.683-1.359-1.021-2.723-1.021-4.087,0-1.226.067-2.315.205-3.269.68-6.672,1.666-11.168,2.963-13.485,1.293-2.315,3.643-3.882,7.049-4.7Zm18.39,5.108c-1.909-.817-4.428-1.226-7.56-1.226-6.676,0-11.034,1.226-13.077,3.678-2.181,3.135-3.269,7.085-3.269,11.852,0,1.363.782,2.759,2.35,4.189,1.565,1.43,3.301,2.35,5.211,2.759.408.137,1.565.203,3.473.203,3.269,0,5.721-.066,7.356-.203,5.313-.409,8.649-1.089,10.012-2.044,1.226-.817,1.839-1.701,1.839-2.656,0-.408-.137-1.226-.408-2.452-.274-1.226-.479-2.178-.613-2.861-1.092-6.4-2.861-10.146-5.313-11.238Zm25.746,4.904c-.818-1.089-1.501-1.634-2.043-1.634-.137,0-.205.239-.205.715,0,.479.067,1.124.205,1.942.134.817.271,1.705.408,2.656,1.769,7.902,3.2,18.185,4.291,30.853.543,7.085,1.293,10.626,2.247,10.626.543,0,1.36-.884,2.452-2.656.952-1.498,1.43-3.678,1.43-6.539,0-3.132-.342-6.742-1.021-10.829-2.181-13.349-4.77-21.727-7.765-25.134Z" fill="#17191e"/><path d="m306.494,460.244c.543-.133,1.768-.205,3.678-.205,5.855,0,10.012.479,12.464,1.43,2.043.818,3.985,2.114,5.824,3.882,1.839,1.772,2.759,3.203,2.759,4.291,0,.954-.377,1.909-1.124,2.861-.751.954-1.399,1.296-1.941,1.021-1.092-.543-2.656-1.565-4.7-3.065-1.909-1.359-3.372-2.178-4.393-2.452-1.022-.272-2.963-.409-5.824-.409h-6.334l-2.452,3.065c-.955,1.092-2.452,3.678-4.495,7.765-1.501,3.269-2.248,7.56-2.248,12.873,0,5.858.818,10.082,2.452,12.669,1.635,2.589,5.242,5.383,10.83,8.377,11.986,6.539,19.888,13.966,23.703,22.273,2.043,4.904,3.065,9.74,3.065,14.508,0,6.267-1.533,11.988-4.598,17.163-3.065,5.178-6.983,8.991-11.749,11.443-2.86,1.5-6.2,2.247-10.012,2.247-6.676,0-11.58-2.178-14.712-6.538-2.318-3.27-3.851-6.504-4.598-9.707-.75-3.199-1.261-8.275-1.533-15.223-.137-2.178-.204-4.767-.204-7.765,0-3.403.339-5.583,1.021-6.539.409-.408.645-.68.715-.817.067-.135.236-.205.511-.205.271,0,.441.035.511.102.067.07.374.377.92.919,1.226,1.226,1.839,4.087,1.839,8.583,0,14.302,2.382,23.635,7.152,27.993,1.089,1.091,3.745,1.634,7.969,1.634,3.403,0,5.789-.338,7.152-1.021,3.95-1.906,7.152-4.904,9.604-8.991s3.678-8.444,3.678-13.078c0-3.948-.75-7.56-2.247-10.829-1.634-3.403-4.361-6.877-8.173-10.421-3.816-3.541-7.902-6.469-12.26-8.786-8.719-4.496-14.099-10.012-16.142-16.551-.955-3.27-1.43-7.081-1.43-11.443s.475-8.174,1.43-11.443c1.36-4.496,3.474-8.716,6.334-12.669,2.861-3.95,5.38-6.264,7.561-6.948Z" fill="#17191e"/><path d="m343.884,460.039c1.089-.68,2.519-1.021,4.291-1.021,1.635,0,3.065.07,4.291.205,7.765.409,15.46.612,23.09.612h16.142c.408,1.502.613,2.656.613,3.475,0,1.226-.715,1.975-2.146,2.247-1.43.274-4.667.409-9.705.409h-10.013c-.137,12.534-.204,31.297-.204,56.294s-.07,43.762-.205,56.294l-1.839.203c-.274,0-.546.036-.818.102-.274.071-.479.102-.613.102-1.226,0-1.976-2.28-2.247-6.844-.275-4.563-.409-16.653-.409-36.269v-69.881h-9.604c-6.404,0-10.083-.409-11.033-1.226-1.772-1.635-1.635-3.199.408-4.7Z" fill="#17191e"/><path d="m397.215,462.491c.543-.68,1.328-1.053,2.35-1.124,1.022-.066,1.667.173,1.941.716.271.545,2.995.817,8.173.817,4.087,0,7.219.307,9.4.919,2.177.614,5.038,1.942,8.582,3.985,4.221,2.589,7.662,6.13,10.319,10.626,2.656,4.495,3.985,9.061,3.985,13.69,0,.274-.036.649-.102,1.124-.07.479-.102.853-.102,1.124-1.092,8.448-4.904,14.578-11.443,18.39-1.909,1.226-2.931,1.84-3.065,1.84-.275.274.408,1.296,2.043,3.064,10.625,11.989,16.618,29.833,17.981,53.535.272,4.087.409,6.268.409,6.539,0,2.044-.409,3.473-1.226,4.291-1.909,2.18-3.544,2.385-4.904.612-.408-.408-.887-4.29-1.43-11.647-.955-20.158-5.721-35.758-14.304-46.792-2.318-2.994-4.259-5.006-5.824-6.027-1.568-1.021-3.917-1.667-7.049-1.942-4.495-.68-7.426-1.155-8.786-1.43v34.124c-.137,22.613-.683,34.26-1.634,34.94-.955.546-1.909.546-2.861,0-.818-.543-1.296-6.947-1.43-19.207,0-2.043-.342-21.997-1.021-59.869-.409-16.889-.613-28.264-.613-34.123,0-5.038.204-7.765.613-8.174Zm24.111,9.4c-3.678-1.635-7.631-2.452-11.851-2.452-.955,0-2.385.137-4.291.409l-2.86.203.613,8.378c.271,5.996.408,11.989.408,17.981,0,4.632.102,7.493.307,8.582.204,1.092.849,1.977,1.941,2.656,1.497.954,4.699,1.43,9.604,1.43,4.495,0,7.866-.511,10.114-1.533,2.247-1.021,4.393-2.892,6.437-5.618,2.178-2.996,3.269-6.335,3.269-10.013,0-3.948-1.194-7.765-3.576-11.443-2.385-3.678-5.756-6.539-10.114-8.582Z" fill="#17191e"/><path d="m463.62,459.835c1.36-.543,2.248-.817,2.656-.817.543,0,1.973.342,4.291,1.021,4.767,1.363,8.308,4.496,10.626,9.4,2.86,5.721,4.802,11.375,5.824,16.96,1.021,5.587,1.532,13.485,1.532,23.702v4.087c0,21.117-2.181,38.756-6.539,52.921-2.726,8.174-6.471,12.261-11.238,12.261-.546,0-1.5-.135-2.86-.409-2.318-.817-4.224-1.838-5.722-3.064-3.135-2.861-5.996-11.373-8.582-25.542-1.226-7.22-1.839-19.137-1.839-35.758,0-16.89.476-27.79,1.43-32.694,2.452-13.078,5.925-20.433,10.421-22.068Zm7.765,7.561c-.683-.272-1.839-.409-3.473-.409-2.181,0-3.474.274-3.882.817-1.772,2.318-3.407,8.991-4.904,20.025-.546,4.769-.817,14.099-.817,27.993,0,13.76.271,22.885.817,27.38,1.226,9.946,2.928,17.643,5.108,23.09,1.498,3.544,3.269,5.313,5.313,5.313,2.995,0,5.447-3.132,7.356-9.4,3.269-10.624,4.904-26.221,4.904-46.792v-6.334c-.137-11.443-.818-19.479-2.043-24.111-.955-3.678-2.35-7.423-4.189-11.238-1.84-3.813-3.238-5.926-4.189-6.334Z" fill="#17191e"/><path d="m546.576,462.083c1.361-.409,6.197-.614,14.508-.614,8.174,0,12.736.409,13.69,1.226.818.818,1.226,1.635,1.226,2.452,0,2.181-2.589,3.27-7.765,3.27h-4.699v29.424c0,22.343.205,40.253.614,53.739l.408,24.111h5.722c5.037,0,7.56,1.091,7.56,3.269,0,1.363-.853,2.181-2.554,2.452-1.705.274-6.027.479-12.975.614h-6.743c-4.361,0-7.151-.17-8.377-.511-1.226-.338-1.84-1.054-1.84-2.145,0-1.498.511-2.484,1.533-2.963,1.021-.475,3.031-.715,6.027-.715h5.313l-.408-30.854c-.409-17.027-.614-34.941-.614-53.739v-22.681h-5.722c-2.86,0-4.836-.205-5.925-.614-1.091-.408-1.635-1.293-1.635-2.656,0-1.634.885-2.656,2.656-3.064Z" fill="#17191e"/><path d="m537.111,518.191c-.776-.573-2.134-.932-4.073-1.079-2.243-.171-4.289-.275-6.133-.312-1.765-.061-3.971-.06-6.595-.035-1.969-.017-3.674-.014-5.09.035-.567.011-1.16.031-1.765.056-.026,0-.049,0-.075.001v.002c-1.341.055-2.767.138-4.292.254-1.939.148-3.296.506-4.073,1.079-1.743,1.364-1.902,2.658-.474,3.884.548.471,2.862.553,6.943.242,2.178-.166,5.374-.269,9.578-.31,4.204.041,7.401.144,9.578.31,4.081.31,6.395.229,6.943-.242,1.428-1.225,1.269-2.52-.474-3.884Z" fill="#17191e"/><path d="m747.241,518.191c-.776-.573-2.134-.932-4.073-1.079-2.243-.171-4.289-.275-6.133-.312-1.765-.061-3.971-.06-6.595-.035-1.969-.017-3.674-.014-5.09.035-.567.011-1.16.031-1.765.056-.026,0-.049,0-.075.001v.002c-1.341.055-2.767.138-4.292.254-1.939.148-3.296.506-4.073,1.079-1.743,1.364-1.902,2.658-.474,3.884.548.471,2.862.553,6.943.242,2.178-.166,5.374-.269,9.578-.31,4.204.041,7.401.144,9.578.31,4.081.31,6.395.229,6.943-.242,1.428-1.225,1.269-2.52-.474-3.884Z" fill="#17191e"/><path d="m605.252,467.877v29.424c0,22.343.205,40.253.614,53.739l.408,24.111h5.722c5.038,0,7.56,1.091,7.56,3.269,0,1.363-.852,2.181-2.554,2.452-1.705.274-6.027.479-12.975.614h-6.742c-4.361,0-7.152-.17-8.378-.511-1.226-.338-1.838-1.054-1.838-2.145,0-1.498.51-2.484,1.531-2.963,1.023-.475,3.031-.715,6.029-.715h5.312l-.408-30.854c-.409-17.027-.614-34.941-.614-53.739v-22.681l-6.18,10.11c-2.002,3.432-4.378,2.457-5.467,2.048-1.091-.408-1.634-1.293-1.634-2.656,0-1.634,2.61-7.398,3.669-8.876,2.252-3.142,5.169-8.044,11.053-8.102,1.227-.012,0,0,1.434,0,.741,0,2.459.533,3.141.54" fill="#17191e"/><path d="m647.875,489.589v-2.154c0-5.406-.275-9.655-.819-12.631-.55-3.003-1.605-6.078-3.13-9.126-1.312-2.777-3.354-4.579-6.069-5.355-1.707-.501-2.208-.568-2.473-.568-.242,0-.612.059-1.657.476-2.663.97-4.616,4.96-5.973,12.195-.517,2.651-.768,8.336-.768,17.38,0,8.761.329,15.145.98,18.985,1.104,6.039,2.284,10.098,3.6,12.368-1.623,1.931-2.891,5.418-3.867,10.621-.516,2.653-.767,8.338-.767,17.38,0,8.767.329,15.15.98,18.985,1.406,7.704,2.963,12.246,4.787,13.911.854.699,1.944,1.285,3.243,1.742l.101.028c.77.155,1.312.23,1.656.23,2.859,0,5.092-2.348,6.642-6.993,2.309-7.507,3.479-16.968,3.479-28.12v-2.154c0-5.408-.275-9.657-.82-12.631-.55-3.005-1.605-6.08-3.13-9.126-.481-1.021-1.078-1.924-1.777-2.692.88-1.13,1.651-2.68,2.302-4.631,2.309-7.504,3.479-16.965,3.479-28.12Zm-5.107,56.661v3.34c0,10.717-.858,18.942-2.554,24.449-.614,2.019-1.661,4.424-3.16,4.424-.926,0-1.658-1.273-2.104-2.329-1.12-2.798-2.01-6.831-2.645-11.985-.282-2.325-.426-7.151-.426-14.343,0-7.265.144-12.201.425-14.657.956-7.048,1.854-9.438,2.395-10.159.011-.007.282-.18,1.494-.18.997,0,1.401.102,1.529.152.055.029.57.358,1.834,2.978.942,1.955,1.669,3.902,2.159,5.788v.003c.627,2.369.98,6.584,1.053,12.52Zm-5.659-27.142c-.927,0-1.659-1.273-2.104-2.33-1.12-2.796-2.011-6.829-2.646-11.984-.282-2.325-.426-7.151-.426-14.343,0-7.265.144-12.201.425-14.657.956-7.048,1.854-9.438,2.395-10.159.011-.007.282-.18,1.494-.18.997,0,1.401.102,1.53.152.055.029.569.357,1.833,2.979.941,1.95,1.668,3.897,2.159,5.79.628,2.373.981,6.588,1.053,12.52v3.34c0,10.717-.858,18.942-2.554,24.449-.614,2.019-1.661,4.424-3.159,4.424Z" fill="#17191e"/><path d="m696.753,461.062c.818-.818,1.498-1.227,2.044-1.227,1.226,0,1.941,2.386,2.145,7.152.205,4.77.374,19.277.511,43.523v15.529c0,32.421-.818,50.06-2.452,52.921-.546.955-1.363,1.43-2.452,1.43s-2.114-.475-3.065-1.43c-.683-.68-1.296-2.178-1.84-4.495-7.221-29.424-11.375-46.859-12.464-52.309-6.947-30.513-11.238-45.77-12.873-45.77-.137,0-.205,9.536-.205,28.606v23.09l.409,51.9-2.452.205c-.274,0-.546.035-.817.102-.274.07-.479.102-.614.102-1.363,0-2.18-2.315-2.452-6.947-.274-4.629-.409-17.164-.409-37.598v-25.337c0-22.748.205-36.642.614-41.685.409-5.037,1.498-7.56,3.269-7.56.135,0,.409.036.818.102.408.071.747.102,1.021.102l3.269.205,2.656,7.56c.818,2.181,2.044,6.334,3.678,12.464,1.635,6.131,2.861,10.151,3.679,12.056.408,1.226,2.381,9.603,5.925,25.132,5.993,26.839,9.261,40.254,9.808,40.254.818,0,1.226-11.852,1.226-35.554,0-6.811-.137-14.575-.408-23.294-.276-5.038-.409-11.577-.409-19.616,0-11.713.612-18.252,1.838-19.615Z" fill="#17191e"/><path d="m782.164,462.288c1.359-.272,2.518-.409,3.473-.409,7.628,0,15.051,2.114,22.272,6.334,4.496,2.589,7.899,6.813,10.217,12.669.818,2.18,2.111,3.473,3.882,3.882,3.403.817,6.197,3.269,8.378,7.356,2.043,3.678,3.847,9.163,5.415,16.449,1.564,7.29,2.35,13.793,2.35,19.514,0,4.496-.409,7.835-1.226,10.012-.818,2.181-2.386,4.02-4.7,5.517-1.5,1.091-2.317,2.043-2.452,2.861-.137.682-.205,1.634-.205,2.86,0,.818.032,1.909.102,3.27.067,1.363.17,3.304.307,5.823.135,2.523.272,4.873.409,7.05.271,6.813.408,10.966.408,12.464,0,1.909-.07,2.931-.203,3.065-.546.545-5.384.817-14.508.817s-14.032-.409-14.711-1.226c-.409-.409-.888-4.154-1.43-11.238-.276-6.673-.649-10.795-1.124-12.363-.479-1.564-1.533-2.688-3.168-3.371-.546-.272-1.568-.409-3.065-.409-3.678,0-6.13.818-7.356,2.452-.546.818-.954,5.108-1.226,12.873-.274,7.902-.612,12.056-1.021,12.465-.546.545-4.429.817-11.647.817h-5.108c-4.087,0-6.471-.338-7.151-1.021-1.502-1.498-2.249-10.012-2.249-25.542,0-19.07.952-34.737,2.861-46.996,2.452-14.984,6.877-27.448,13.282-37.393,2.043-3.133,3.643-5.243,4.802-6.334,1.156-1.089,2.621-1.84,4.394-2.247Zm12.259,7.151c-4.087-1.089-6.813-1.635-8.174-1.635-1.771,0-3.543.751-5.312,2.247-8.04,7.085-13.624,22.682-16.755,46.793-1.226,11.308-1.84,24.111-1.84,38.415,0,4.769.067,8.106.205,10.012l.612,10.217h8.991c2.861,0,4.563-.476,5.108-1.43.544-.952.818-3.882.818-8.786v-1.635c.133-7.356.986-11.985,2.554-13.894,1.564-1.906,5.618-2.994,12.157-3.269,1.226-.135,2.791-.205,4.7-.205,2.452,0,3.948.274,4.495.817,2.452,1.909,3.678,7.427,3.678,16.551,0,3.407.205,6.539.614,9.4l.408,2.452h18.186l-.409-9.4c0-.952-.137-4.22-.408-9.808-.274-5.583-.479-9.738-.614-12.464-.137-3.813-.274-6.776-.408-8.888-.138-2.11-.276-3.577-.409-4.394-.137-.817-.409-2.212-.817-4.189-.409-1.973-.751-4.323-1.023-7.049-2.18-20.159-5.383-33.306-9.603-39.436-3.407-4.904-8.991-8.378-16.755-10.421Zm-14.099,13.69c3.132-.68,6.469-1.021,10.012-1.021,4.22,0,7.899.479,11.035,1.43,1.906.683,3.097,1.328,3.576,1.941.475.614,1.191,2.284,2.145,5.006,1.361,3.953,2.11,8.244,2.247,12.873l.409,7.56-3.065,1.43c-3.815,1.772-9.808,2.656-17.981,2.656-1.771,0-2.997-.066-3.678-.205-2.86-.271-5.653-1.021-8.377-2.247-2.726-1.226-4.566-2.519-5.517-3.882-.683-1.359-1.021-2.723-1.021-4.087,0-1.226.067-2.315.205-3.269.68-6.672,1.666-11.168,2.963-13.485,1.292-2.315,3.642-3.882,7.049-4.7Zm18.39,5.108c-1.909-.817-4.429-1.226-7.56-1.226-6.676,0-11.035,1.226-13.078,3.678-2.181,3.135-3.27,7.085-3.27,11.852,0,1.363.783,2.759,2.35,4.189,1.565,1.43,3.302,2.35,5.211,2.759.409.137,1.565.203,3.475.203,3.269,0,5.721-.066,7.356-.203,5.313-.409,8.649-1.089,10.012-2.044,1.226-.817,1.84-1.701,1.84-2.656,0-.408-.137-1.226-.409-2.452-.274-1.226-.479-2.178-.614-2.861-1.091-6.4-2.86-10.146-5.312-11.238Zm25.745,4.904c-.817-1.089-1.5-1.634-2.043-1.634-.137,0-.205.239-.205.715,0,.479.067,1.124.205,1.942.135.817.272,1.705.409,2.656,1.768,7.902,3.199,18.185,4.29,30.853.544,7.085,1.293,10.626,2.249,10.626.543,0,1.359-.884,2.452-2.656.952-1.498,1.43-3.678,1.43-6.539,0-3.132-.342-6.742-1.023-10.829-2.18-13.349-4.769-21.727-7.765-25.134Z" fill="#17191e"/><path d="m843.664,461.674c1.361-1.089,2.656-1.021,3.882.205.818.817,1.226,4.632,1.226,11.443,0,11.033.681,24.862,2.044,41.479,1.359,16.622,2.861,29.29,4.495,38.007,1.498,8.582,3.882,14.578,7.152,17.981,1.768,1.908,3.745,2.86,5.925,2.86,5.855,0,10.045-5.686,12.566-17.061,2.519-11.373,4.119-31.978,4.802-61.811.544-19.478.952-29.899,1.227-31.262.543-.952,1.564-1.43,3.064-1.43s2.382.408,2.656,1.226v.612c0,.409.032.955.102,1.635.067.683.102,1.363.102,2.043,0,7.085-.274,18.732-.817,34.941-.546,16.213-1.023,26.429-1.43,30.65-1.363,13.761-2.861,23.364-4.496,28.81-.817,2.998-2.145,6.166-3.985,9.502-1.838,3.34-3.508,5.62-5.006,6.846-2.18,1.771-4.632,2.656-7.356,2.656-4.224,0-8.106-1.77-11.647-5.313-3.269-3.403-5.792-8.614-7.56-15.632-1.772-7.014-3.407-18.354-4.904-34.021-.137-1.635-.444-4.359-.919-8.174-.479-3.813-.786-6.197-.92-7.151-.545-5.585-.954-14.78-1.226-27.586-.137-4.495-.205-9.261-.205-14.304,0-4.22.409-6.605,1.226-7.151Z" fill="#17191e"/><path d="m898.836,460.039c1.089-.68,2.519-1.021,4.291-1.021,1.634,0,3.064.07,4.29.205,7.765.409,15.46.612,23.09.612h16.143c.408,1.502.612,2.656.612,3.475,0,1.226-.715,1.975-2.145,2.247-1.43.274-4.668.409-9.707.409h-10.012c-.137,12.534-.205,31.297-.205,56.294s-.07,43.762-.205,56.294l-1.838.203c-.274,0-.546.036-.817.102-.276.071-.479.102-.614.102-1.226,0-1.977-2.28-2.247-6.844-.274-4.563-.409-16.653-.409-36.269v-69.881h-9.603c-6.405,0-10.083-.409-11.035-1.226-1.772-1.635-1.634-3.199.409-4.7Z" fill="#17191e"/></g></g></svg>